<svg viewBox="0 0 31 25" fill="none" xmlns="http://www.w3.org/2000/svg">
<path d="M4.74005 2.79441C6.74674 1.85553 8.89238 1.1732 11.1356 0.784668C11.4111 1.28275 11.7329 1.95268 11.9548 2.4856C14.3394 2.12699 16.7021 2.12699 19.0428 2.4856C19.2647 1.95268 19.5939 1.28275 19.8718 0.784668C22.1175 1.1732 24.2656 1.85804 26.2723 2.79938C30.3198 8.91569 31.417 14.8801 30.8684 20.7598C28.1838 22.7645 25.5822 23.9823 23.0245 24.7792C22.393 23.9101 21.8298 22.9862 21.3446 22.0124C22.2687 21.6613 23.1537 21.228 23.99 20.7249C23.7682 20.5606 23.5511 20.3887 23.3415 20.2119C18.2407 22.5977 12.6985 22.5977 7.65863 20.2119C7.4465 20.3887 7.22952 20.5606 7.01008 20.7249C7.84884 21.2304 8.73634 21.6638 9.66043 22.0149C9.17523 22.9862 8.61442 23.9126 7.98049 24.7817C5.42031 23.9848 2.81627 22.767 0.131758 20.7598C-0.511953 13.9437 1.23139 8.0341 4.74005 2.79441ZM20.6496 17.1438C22.1809 17.1438 23.4366 15.7143 23.4366 13.9736C23.4366 12.2328 22.2077 10.8009 20.6496 10.8009C19.0916 10.8009 17.8359 12.2303 17.8627 13.9736C17.8603 15.7143 19.0916 17.1438 20.6496 17.1438ZM10.3505 17.1438C11.8817 17.1438 13.1374 15.7143 13.1374 13.9736C13.1374 12.2328 11.9085 10.8009 10.3505 10.8009C8.79243 10.8009 7.53671 12.2303 7.56353 13.9736C7.56353 15.7143 8.79243 17.1438 10.3505 17.1438Z" fill="white"/>
</svg>
