<svg viewBox="0 0 15 15" fill="none" xmlns="http://www.w3.org/2000/svg">
<path d="M13.2 14.0667L11.1834 12.05C10.9056 12.2278 10.6111 12.3806 10.3 12.5083C9.98891 12.6361 9.66668 12.7389 9.33335 12.8167V11.45C9.48891 11.3944 9.64168 11.3389 9.79168 11.2833C9.94168 11.2278 10.0834 11.1611 10.2167 11.0833L8.00002 8.86667V12.3333L4.66668 9H2.00002V5H4.13335L0.93335 1.8L1.86668 0.866669L14.1334 13.1333L13.2 14.0667ZM13.0667 10.2L12.1 9.23334C12.2889 8.88889 12.4306 8.52778 12.525 8.15C12.6195 7.77223 12.6667 7.38334 12.6667 6.98334C12.6667 5.93889 12.3611 5.00556 11.75 4.18334C11.1389 3.36111 10.3334 2.80556 9.33335 2.51667V1.15C10.7111 1.46111 11.8334 2.15834 12.7 3.24167C13.5667 4.325 14 5.57223 14 6.98334C14 7.57223 13.9195 8.13889 13.7584 8.68334C13.5972 9.22778 13.3667 9.73334 13.0667 10.2ZM10.8334 7.96667L9.33335 6.46667V4.3C9.85557 4.54445 10.2639 4.91111 10.5584 5.4C10.8528 5.88889 11 6.42222 11 7C11 7.16667 10.9861 7.33056 10.9584 7.49167C10.9306 7.65278 10.8889 7.81111 10.8334 7.96667ZM8.00002 5.13334L6.26668 3.4L8.00002 1.66667V5.13334ZM6.66668 9.1V7.53334L5.46668 6.33334H3.33335V7.66667H5.23335L6.66668 9.1Z" fill="black"/>
</svg>
