<svg viewBox="0 0 12 12" fill="none" xmlns="http://www.w3.org/2000/svg">
<path d="M7.33333 12V10.5943C8.33333 10.2971 9.13889 9.72571 9.75 8.88C10.3611 8.03429 10.6667 7.07429 10.6667 6C10.6667 4.92571 10.3611 3.96571 9.75 3.12C9.13889 2.27429 8.33333 1.70286 7.33333 1.40571V0C8.71111 0.32 9.83333 1.03714 10.7 2.15143C11.5667 3.26571 12 4.54857 12 6C12 7.45143 11.5667 8.73429 10.7 9.84857C9.83333 10.9629 8.71111 11.68 7.33333 12ZM0 8.07429V3.96H2.66667L6 0.531429V11.5029L2.66667 8.07429H0ZM7.33333 8.76V3.24C7.85556 3.49143 8.26389 3.86857 8.55833 4.37143C8.85278 4.87429 9 5.42286 9 6.01714C9 6.6 8.85278 7.14 8.55833 7.63714C8.26389 8.13428 7.85556 8.50857 7.33333 8.76ZM4.66667 3.85714L3.23333 5.33143H1.33333V6.70286H3.23333L4.66667 8.17714V3.85714Z" fill="black"/>
</svg>
