<svg viewBox="0 0 31 31" fill="white" xmlns="http://www.w3.org/2000/svg">
<path d="M15.6292 0.108398C12.6403 0.108398 9.71834 0.994727 7.23311 2.65531C4.74788 4.31588 2.81087 6.67613 1.66704 9.43758C0.523217 12.199 0.223932 15.2377 0.807048 18.1691C1.39016 21.1008 2.8295 23.7934 4.94302 25.9071C7.05654 28.0206 9.74932 29.4599 12.6809 30.043C15.6123 30.6262 18.6511 30.3268 21.4125 29.1829C24.174 28.0391 26.5342 26.1022 28.1948 23.617C29.8553 21.1318 30.7417 18.2099 30.7417 15.2209C30.7417 11.2128 29.1494 7.36889 26.3154 4.53475C23.4812 1.70059 19.6372 0.108398 15.6292 0.108398ZM23.0532 10.4604L20.5785 22.1537C20.3896 22.9849 19.8984 23.1738 19.1995 22.796L15.4214 20.0002L13.5323 21.757C13.4433 21.8732 13.329 21.9677 13.1981 22.0332C13.0672 22.0986 12.9231 22.1333 12.7767 22.1348L13.0411 18.3567L20.0307 12.0284C20.3518 11.7639 20.0307 11.6128 19.5773 11.8772L11.001 17.2611L7.22283 16.0899C6.41054 15.8443 6.39165 15.2776 7.39285 14.8997L21.9575 9.23256C22.6754 9.02476 23.2799 9.44036 23.0532 10.4604Z" fill="white"/>
</svg>
