<svg viewBox="0 0 328 185" fill="none" xmlns="http://www.w3.org/2000/svg">
<g clip-path="url(#clip0_179_500)">
<mask id="path-1-inside-1_179_500" fill="white">
<path d="M0 8C0 3.58172 3.58172 0 8 0H320C324.418 0 328 3.58172 328 8V177C328 181.418 324.418 185 320 185H7.99999C3.58171 185 0 181.418 0 177V8Z"/>
</mask>
<mask id="path-3-inside-2_179_500" fill="white">
<path d="M0 17H71V185H0V17Z"/>
</mask>
<path d="M0 17H71V185H0V17Z" fill="url(#paint0_linear_179_500)"/>
<path d="M70 17V185H72V17H70Z" fill="url(#paint1_linear_179_500)" mask="url(#path-3-inside-2_179_500)"/>
<rect x="4" y="21" width="63" height="45" rx="4" fill="#004444" fill-opacity="0.41"/>
<rect x="4.5" y="21.5" width="62" height="44" rx="3.5" stroke="white" stroke-opacity="0.2" stroke-dasharray="1 1"/>
<rect x="8" y="25" width="39" height="11" rx="4" fill="url(#paint2_linear_179_500)" fill-opacity="0.6"/>
<rect x="51" y="25" width="12" height="11" rx="4" fill="url(#paint3_linear_179_500)" fill-opacity="0.6"/>
<rect x="8" y="40" width="55" height="11" rx="4" fill="url(#paint4_linear_179_500)" fill-opacity="0.6"/>
<rect x="21" y="55" width="7" height="7" rx="3.5" fill="url(#paint5_linear_179_500)" fill-opacity="0.6"/>
<rect x="32" y="55" width="7" height="7" rx="3.5" fill="url(#paint6_linear_179_500)" fill-opacity="0.6"/>
<rect x="43" y="55" width="7" height="7" rx="3.5" fill="url(#paint7_linear_179_500)" fill-opacity="0.6"/>
<rect x="4" y="70" width="63" height="34" rx="4" fill="#3C3C3C" fill-opacity="0.4"/>
<rect x="4.5" y="70.5" width="62" height="33" rx="3.5" stroke="white" stroke-opacity="0.2" stroke-dasharray="1 1"/>
<rect x="8" y="74" width="55" height="11" rx="4" fill="url(#paint8_linear_179_500)" fill-opacity="0.6"/>
<rect x="8" y="89" width="25.5" height="11" rx="4" fill="url(#paint9_linear_179_500)" fill-opacity="0.6"/>
<rect x="37.5" y="89" width="25.5" height="11" rx="4" fill="url(#paint10_linear_179_500)" fill-opacity="0.6"/>
<rect x="4" y="108" width="63" height="34" rx="4" fill="#004444" fill-opacity="0.41"/>
<rect x="4.5" y="108.5" width="62" height="33" rx="3.5" stroke="white" stroke-opacity="0.2" stroke-dasharray="1 1"/>
<rect x="8" y="112" width="55" height="11" rx="4" fill="url(#paint11_linear_179_500)" fill-opacity="0.6"/>
<rect x="8" y="127" width="12" height="11" rx="4" fill="url(#paint12_linear_179_500)" fill-opacity="0.6"/>
<rect x="24" y="127" width="39" height="11" rx="4" fill="url(#paint13_linear_179_500)" fill-opacity="0.6"/>
<mask id="path-23-inside-3_179_500" fill="white">
<path d="M0 0H328V17H0V0Z"/>
</mask>
<path d="M0 0H328V17H0V0Z" fill="#121212"/>
<path d="M328 16H0V18H328V16Z" fill="#282828" mask="url(#path-23-inside-3_179_500)"/>
<rect x="8" y="4" width="13" height="9" rx="1" fill="url(#paint14_linear_179_500)" fill-opacity="0.6"/>
<rect x="187" y="4" width="28" height="9" rx="1" fill="url(#paint15_linear_179_500)" fill-opacity="0.6"/>
<rect x="225" y="4" width="29" height="9" rx="1" fill="url(#paint16_linear_179_500)" fill-opacity="0.6"/>
<rect x="264" y="4" width="19" height="9" rx="1" fill="url(#paint17_linear_179_500)" fill-opacity="0.6"/>
<rect x="293" y="4" width="25" height="9" rx="1" fill="url(#paint18_linear_179_500)" fill-opacity="0.6"/>
<path d="M158 153L158 46" stroke="url(#paint19_linear_179_500)" stroke-width="2" stroke-linecap="round"/>
<path d="M319 73L85 73" stroke="#1F1F1F" stroke-linecap="round"/>
<path d="M201 139L201 59" stroke="#1F1F1F" stroke-linecap="round"/>
<path d="M319 139L319 59" stroke="#1F1F1F" stroke-linecap="round"/>
<path d="M85 139L85 59" stroke="#1F1F1F" stroke-linecap="round"/>
<path d="M319 125L85 125" stroke="#1F1F1F" stroke-linecap="round"/>
<path d="M93.5703 78V76.8037L94.6299 76.5986V69.4551L93.5703 69.25V68.0469H98.2871C99.0527 68.0469 99.709 68.1654 100.256 68.4023C100.803 68.6393 101.222 68.9788 101.514 69.4209C101.81 69.863 101.958 70.3939 101.958 71.0137C101.958 71.597 101.812 72.1188 101.521 72.5791C101.229 73.0394 100.823 73.4017 100.304 73.666C99.7842 73.9303 99.1849 74.0648 98.5059 74.0693H96.626V76.5986L97.6924 76.8037V78H93.5703ZM99.9756 78L98.3008 73.7002L100.099 73.2559L101.548 76.6055L102.396 76.8037V78H99.9756ZM96.626 72.5312H98.2529C98.8271 72.5312 99.2555 72.4105 99.5381 72.1689C99.8252 71.9229 99.9688 71.5674 99.9688 71.1025C99.9688 70.6423 99.8275 70.2754 99.5449 70.002C99.2624 69.724 98.8431 69.585 98.2871 69.585H96.626V72.5312Z" fill="#808080"/>
<path d="M123.071 78V76.8037L123.939 76.6396L126.756 73.0713L124.104 69.4209L123.297 69.25V68.0469H127.187V69.25L126.236 69.3389L127.945 71.7314L129.654 69.3389L128.725 69.25V68.0469H132.56V69.25L131.678 69.4209L129.128 72.8936L131.985 76.6328L132.936 76.8037V78H128.95V76.8037L129.805 76.7217L127.959 74.1924L126.072 76.7217L126.906 76.8037V78H123.071Z" fill="#808080"/>
<path d="M153.57 78V76.8037L154.63 76.5986V69.4551L153.57 69.25V68.0469H158.287C159.053 68.0469 159.709 68.1654 160.256 68.4023C160.803 68.6393 161.222 68.9788 161.514 69.4209C161.81 69.863 161.958 70.3939 161.958 71.0137C161.958 71.597 161.812 72.1188 161.521 72.5791C161.229 73.0394 160.823 73.4017 160.304 73.666C159.784 73.9303 159.185 74.0648 158.506 74.0693H156.626V76.5986L157.692 76.8037V78H153.57ZM159.976 78L158.301 73.7002L160.099 73.2559L161.548 76.6055L162.396 76.8037V78H159.976ZM156.626 72.5312H158.253C158.827 72.5312 159.256 72.4105 159.538 72.1689C159.825 71.9229 159.969 71.5674 159.969 71.1025C159.969 70.6423 159.827 70.2754 159.545 70.002C159.262 69.724 158.843 69.585 158.287 69.585H156.626V72.5312Z" fill="#808080"/>
<path d="M185.053 78V76.8037L186.01 76.5986V72.0117L184.95 71.8066V70.6035H187.869L187.944 71.5195L187.958 71.6836C188.14 71.2826 188.366 70.9795 188.635 70.7744C188.904 70.5693 189.225 70.4668 189.599 70.4668C189.717 70.4668 189.847 70.4782 189.988 70.501C190.13 70.5192 190.255 70.5443 190.364 70.5762L190.152 72.415L189.161 72.3604C188.879 72.3467 188.648 72.3945 188.471 72.5039C188.298 72.6133 188.143 72.7705 188.006 72.9756V76.5986L188.963 76.8037V78H185.053Z" fill="#808080"/>
<path d="M214.053 78V76.8037L215.01 76.5986V72.0117L213.95 71.8066V70.6035H216.869L216.944 71.5195L216.958 71.6836C217.14 71.2826 217.366 70.9795 217.635 70.7744C217.904 70.5693 218.225 70.4668 218.599 70.4668C218.717 70.4668 218.847 70.4782 218.988 70.501C219.13 70.5192 219.255 70.5443 219.364 70.5762L219.152 72.415L218.161 72.3604C217.879 72.3467 217.648 72.3945 217.471 72.5039C217.298 72.6133 217.143 72.7705 217.006 72.9756V76.5986L217.963 76.8037V78H214.053Z" fill="#808080"/>
<path d="M241.57 78V76.8037L242.63 76.5986V69.4551L241.57 69.25V68.0469H246.287C247.053 68.0469 247.709 68.1654 248.256 68.4023C248.803 68.6393 249.222 68.9788 249.514 69.4209C249.81 69.863 249.958 70.3939 249.958 71.0137C249.958 71.597 249.812 72.1188 249.521 72.5791C249.229 73.0394 248.823 73.4017 248.304 73.666C247.784 73.9303 247.185 74.0648 246.506 74.0693H244.626V76.5986L245.692 76.8037V78H241.57ZM247.976 78L246.301 73.7002L248.099 73.2559L249.548 76.6055L250.396 76.8037V78H247.976ZM244.626 72.5312H246.253C246.827 72.5312 247.256 72.4105 247.538 72.1689C247.825 71.9229 247.969 71.5674 247.969 71.1025C247.969 70.6423 247.827 70.2754 247.545 70.002C247.262 69.724 246.843 69.585 246.287 69.585H244.626V72.5312Z" fill="#808080"/>
<path d="M271.57 78V76.8037L272.63 76.5986V69.4551L271.57 69.25V68.0469H276.287C277.053 68.0469 277.709 68.1654 278.256 68.4023C278.803 68.6393 279.222 68.9788 279.514 69.4209C279.81 69.863 279.958 70.3939 279.958 71.0137C279.958 71.597 279.812 72.1188 279.521 72.5791C279.229 73.0394 278.823 73.4017 278.304 73.666C277.784 73.9303 277.185 74.0648 276.506 74.0693H274.626V76.5986L275.692 76.8037V78H271.57ZM277.976 78L276.301 73.7002L278.099 73.2559L279.548 76.6055L280.396 76.8037V78H277.976ZM274.626 72.5312H276.253C276.827 72.5312 277.256 72.4105 277.538 72.1689C277.825 71.9229 277.969 71.5674 277.969 71.1025C277.969 70.6423 277.827 70.2754 277.545 70.002C277.262 69.724 276.843 69.585 276.287 69.585H274.626V72.5312Z" fill="#808080"/>
<path d="M304.086 78V76.8037L305.05 76.5986V68.7441L303.983 68.5391V67.3359H307.046V76.5986L308.01 76.8037V78H304.086Z" fill="#808080"/>
<path d="M94.2812 130V128.804L95.3408 128.599V121.455L94.2812 121.25V120.047H95.3408H97.3369H98.54V121.25L97.3369 121.455V128.469H100.146L100.242 127.013H101.767V130H94.2812Z" fill="#808080"/>
<path d="M123.57 130V128.804L124.63 128.599V121.455L123.57 121.25V120.047H128.287C129.053 120.047 129.709 120.165 130.256 120.402C130.803 120.639 131.222 120.979 131.514 121.421C131.81 121.863 131.958 122.394 131.958 123.014C131.958 123.597 131.812 124.119 131.521 124.579C131.229 125.039 130.823 125.402 130.304 125.666C129.784 125.93 129.185 126.065 128.506 126.069H126.626V128.599L127.692 128.804V130H123.57ZM129.976 130L128.301 125.7L130.099 125.256L131.548 128.605L132.396 128.804V130H129.976ZM126.626 124.531H128.253C128.827 124.531 129.256 124.41 129.538 124.169C129.825 123.923 129.969 123.567 129.969 123.103C129.969 122.642 129.827 122.275 129.545 122.002C129.262 121.724 128.843 121.585 128.287 121.585H126.626V124.531Z" fill="#808080"/>
<path d="M156.086 130V128.804L157.05 128.599V120.744L155.983 120.539V119.336H159.046V128.599L160.01 128.804V130H156.086Z" fill="#808080"/>
<path d="M183.07 130V128.804L184.13 128.599V121.455L183.07 121.25V120.047H187.787C188.553 120.047 189.209 120.165 189.756 120.402C190.303 120.639 190.722 120.979 191.014 121.421C191.31 121.863 191.458 122.394 191.458 123.014C191.458 123.597 191.312 124.119 191.021 124.579C190.729 125.039 190.323 125.402 189.804 125.666C189.284 125.93 188.685 126.065 188.006 126.069H186.126V128.599L187.192 128.804V130H183.07ZM189.476 130L187.801 125.7L189.599 125.256L191.048 128.605L191.896 128.804V130H189.476ZM186.126 124.531H187.753C188.327 124.531 188.756 124.41 189.038 124.169C189.325 123.923 189.469 123.567 189.469 123.103C189.469 122.642 189.327 122.275 189.045 122.002C188.762 121.724 188.343 121.585 187.787 121.585H186.126V124.531Z" fill="#808080"/>
<path d="M211.571 130V128.804L212.439 128.64L215.256 125.071L212.604 121.421L211.797 121.25V120.047H215.687V121.25L214.736 121.339L216.445 123.731L218.154 121.339L217.225 121.25V120.047H221.06V121.25L220.178 121.421L217.628 124.894L220.485 128.633L221.436 128.804V130H217.45V128.804L218.305 128.722L216.459 126.192L214.572 128.722L215.406 128.804V130H211.571Z" fill="#808080"/>
<path d="M242.281 130V128.804L243.341 128.599V121.455L242.281 121.25V120.047H243.341H245.337H246.54V121.25L245.337 121.455V128.469H248.146L248.242 127.013H249.767V130H242.281Z" fill="#808080"/>
<path d="M273.553 130V128.804L274.51 128.599V124.012L273.45 123.807V122.604H276.369L276.444 123.52L276.458 123.684C276.64 123.283 276.866 122.979 277.135 122.774C277.404 122.569 277.725 122.467 278.099 122.467C278.217 122.467 278.347 122.478 278.488 122.501C278.63 122.519 278.755 122.544 278.864 122.576L278.652 124.415L277.661 124.36C277.379 124.347 277.148 124.395 276.971 124.504C276.798 124.613 276.643 124.771 276.506 124.976V128.599L277.463 128.804V130H273.553Z" fill="#808080"/>
<path d="M303.553 130V128.804L304.51 128.599V124.012L303.45 123.807V122.604H306.369L306.444 123.52L306.458 123.684C306.64 123.283 306.866 122.979 307.135 122.774C307.404 122.569 307.725 122.467 308.099 122.467C308.217 122.467 308.347 122.478 308.488 122.501C308.63 122.519 308.755 122.544 308.864 122.576L308.652 124.415L307.661 124.36C307.379 124.347 307.148 124.395 306.971 124.504C306.798 124.613 306.643 124.771 306.506 124.976V128.599L307.463 128.804V130H303.553Z" fill="#808080"/>
</g>
<path d="M-2 8C-2 2.47715 2.47715 -2 8 -2H320C325.523 -2 330 2.47715 330 8H326C326 4.68629 323.314 2 320 2H8C4.68629 2 2 4.68629 2 8H-2ZM328 185H0H328ZM8 185C2.47715 185 -2 180.523 -2 175V8C-2 2.47715 2.47715 -2 8 -2V2C4.68629 2 2 4.68629 2 8V177C2 181.418 4.68629 185 8 185ZM320 -2C325.523 -2 330 2.47715 330 8V175C330 180.523 325.523 185 320 185C323.314 185 326 181.418 326 177V8C326 4.68629 323.314 2 320 2V-2Z" fill="url(#paint20_linear_179_500)" mask="url(#path-1-inside-1_179_500)"/>
<defs>
<linearGradient id="paint0_linear_179_500" x1="35.5" y1="17" x2="35.5" y2="185" gradientUnits="userSpaceOnUse">
<stop offset="0.795" stop-color="#121212"/>
<stop offset="1" stop-color="#121212" stop-opacity="0"/>
</linearGradient>
<linearGradient id="paint1_linear_179_500" x1="35.5" y1="17" x2="35.5" y2="185" gradientUnits="userSpaceOnUse">
<stop stop-color="#282828"/>
<stop offset="1" stop-color="#282828" stop-opacity="0"/>
</linearGradient>
<linearGradient id="paint2_linear_179_500" x1="8" y1="30.5" x2="47" y2="30.5" gradientUnits="userSpaceOnUse">
<stop stop-color="#004444"/>
<stop offset="1" stop-color="#008282"/>
</linearGradient>
<linearGradient id="paint3_linear_179_500" x1="51" y1="30.5" x2="63" y2="30.5" gradientUnits="userSpaceOnUse">
<stop stop-color="#004444"/>
<stop offset="1" stop-color="#008282"/>
</linearGradient>
<linearGradient id="paint4_linear_179_500" x1="8" y1="45.5" x2="63" y2="45.5" gradientUnits="userSpaceOnUse">
<stop stop-color="#004444"/>
<stop offset="1" stop-color="#008282"/>
</linearGradient>
<linearGradient id="paint5_linear_179_500" x1="21" y1="58.5" x2="28" y2="58.5" gradientUnits="userSpaceOnUse">
<stop stop-color="#004444"/>
<stop offset="1" stop-color="#008282"/>
</linearGradient>
<linearGradient id="paint6_linear_179_500" x1="32" y1="58.5" x2="39" y2="58.5" gradientUnits="userSpaceOnUse">
<stop stop-color="#004444"/>
<stop offset="1" stop-color="#008282"/>
</linearGradient>
<linearGradient id="paint7_linear_179_500" x1="43" y1="58.5" x2="50" y2="58.5" gradientUnits="userSpaceOnUse">
<stop stop-color="#004444"/>
<stop offset="1" stop-color="#008282"/>
</linearGradient>
<linearGradient id="paint8_linear_179_500" x1="8" y1="79.5" x2="63" y2="79.5" gradientUnits="userSpaceOnUse">
<stop stop-color="#494949"/>
<stop offset="1" stop-color="#737373"/>
</linearGradient>
<linearGradient id="paint9_linear_179_500" x1="8" y1="94.5" x2="33.5" y2="94.5" gradientUnits="userSpaceOnUse">
<stop stop-color="#494949"/>
<stop offset="1" stop-color="#737373"/>
</linearGradient>
<linearGradient id="paint10_linear_179_500" x1="37.5" y1="94.5" x2="63" y2="94.5" gradientUnits="userSpaceOnUse">
<stop stop-color="#494949"/>
<stop offset="1" stop-color="#737373"/>
</linearGradient>
<linearGradient id="paint11_linear_179_500" x1="8" y1="117.5" x2="63" y2="117.5" gradientUnits="userSpaceOnUse">
<stop stop-color="#004444"/>
<stop offset="1" stop-color="#008282"/>
</linearGradient>
<linearGradient id="paint12_linear_179_500" x1="8" y1="132.5" x2="20" y2="132.5" gradientUnits="userSpaceOnUse">
<stop stop-color="#004444"/>
<stop offset="1" stop-color="#008282"/>
</linearGradient>
<linearGradient id="paint13_linear_179_500" x1="24" y1="132.5" x2="63" y2="132.5" gradientUnits="userSpaceOnUse">
<stop stop-color="#004444"/>
<stop offset="1" stop-color="#008282"/>
</linearGradient>
<linearGradient id="paint14_linear_179_500" x1="8" y1="8.5" x2="21" y2="8.5" gradientUnits="userSpaceOnUse">
<stop stop-color="#494949"/>
<stop offset="1" stop-color="#737373"/>
</linearGradient>
<linearGradient id="paint15_linear_179_500" x1="187" y1="8.5" x2="215" y2="8.5" gradientUnits="userSpaceOnUse">
<stop stop-color="#494949"/>
<stop offset="1" stop-color="#737373"/>
</linearGradient>
<linearGradient id="paint16_linear_179_500" x1="225" y1="8.5" x2="254" y2="8.5" gradientUnits="userSpaceOnUse">
<stop stop-color="#004444"/>
<stop offset="1" stop-color="#008282"/>
</linearGradient>
<linearGradient id="paint17_linear_179_500" x1="264" y1="8.5" x2="283" y2="8.5" gradientUnits="userSpaceOnUse">
<stop stop-color="#494949"/>
<stop offset="1" stop-color="#737373"/>
</linearGradient>
<linearGradient id="paint18_linear_179_500" x1="293" y1="8.5" x2="318" y2="8.5" gradientUnits="userSpaceOnUse">
<stop stop-color="#494949"/>
<stop offset="1" stop-color="#737373"/>
</linearGradient>
<linearGradient id="paint19_linear_179_500" x1="158.5" y1="46" x2="158.5" y2="153" gradientUnits="userSpaceOnUse">
<stop stop-color="#6B2431" stop-opacity="0.2"/>
<stop offset="0.33" stop-color="#6B2431"/>
<stop offset="0.66" stop-color="#6B2431"/>
<stop offset="1" stop-color="#6B2431" stop-opacity="0.2"/>
</linearGradient>
<linearGradient id="paint20_linear_179_500" x1="164" y1="0" x2="164" y2="185" gradientUnits="userSpaceOnUse">
<stop stop-color="#282828"/>
<stop offset="1" stop-color="#282828" stop-opacity="0"/>
</linearGradient>
<clipPath id="clip0_179_500">
<path d="M0 8C0 3.58172 3.58172 0 8 0H320C324.418 0 328 3.58172 328 8V177C328 181.418 324.418 185 320 185H7.99999C3.58171 185 0 181.418 0 177V8Z" fill="white"/>
</clipPath>
</defs>
</svg>
